<svg version="1.1" id="Layer_1" xmlns="http://www.w3.org/2000/svg" xmlns:xlink="http://www.w3.org/1999/xlink" x="0px" y="0px"
	 width="100%" viewBox="0 0 800 800" enable-background="new 0 0 800 800" xml:space="preserve">
<path fill="#000000" opacity="1.000000" stroke="none" 
	d="
M163.912323,556.729675 
	C184.345856,548.846863 203.782043,550.366089 222.354340,561.042786 
	C225.863068,563.059875 227.153336,561.045776 228.972321,559.229309 
	C258.333221,529.908203 287.686859,500.579865 317.028198,471.239197 
	C398.099823,390.169189 479.165009,309.092743 560.231995,228.018158 
	C561.174622,227.075455 562.013428,225.999268 563.063721,225.199524 
	C566.125916,222.867828 566.136841,220.674683 564.212891,217.208389 
	C541.358276,176.031479 566.627319,125.538902 613.384460,119.930817 
	C654.361816,115.015945 683.802185,146.262863 686.539429,178.844620 
	C689.517456,214.291168 664.503235,245.698944 629.040771,250.055374 
	C615.700195,251.694229 602.712402,249.452576 590.869324,242.891327 
	C586.734253,240.600464 584.392029,240.997375 581.086060,244.311844 
	C505.662567,319.929199 430.118530,395.426331 354.600586,470.949493 
	C319.019043,506.533539 283.482513,542.162842 247.796875,577.642090 
	C244.900177,580.522034 244.653748,582.514160 246.545410,586.121277 
	C267.189178,625.485779 245.265945,672.289062 201.974045,681.618347 
	C161.028412,690.442017 122.008621,657.729309 123.550873,615.767578 
	C124.577545,587.833679 138.523254,568.554199 163.912323,556.729675 
M639.993103,150.504868 
	C620.963196,140.190842 597.382080,147.083572 587.065308,165.975571 
	C576.795471,184.781601 583.504578,208.551910 601.640991,218.897049 
	C621.250549,230.082550 644.751099,222.524185 654.695984,205.281296 
	C666.175354,185.377975 660.050842,162.020721 639.993103,150.504868 
M227.661606,623.017761 
	C229.143509,608.998352 225.215683,596.865784 214.304337,587.695679 
	C200.837448,576.377930 184.444534,575.067566 169.182190,583.507629 
	C155.401276,591.128601 148.086166,606.452515 150.225494,623.218811 
	C152.538712,641.347900 169.301285,656.384094 187.538147,656.688660 
	C207.401443,657.020386 222.759262,644.458435 227.661606,623.017761 
z"/>
<path fill="#000000" opacity="1.000000" stroke="none" 
	d="
M564.749390,524.749329 
	C513.152283,576.381897 461.805267,627.764587 410.456818,679.145752 
	C405.314453,684.291443 405.312134,684.285461 400.113556,679.085754 
	C372.313354,651.279297 344.536896,623.449036 316.680023,595.699524 
	C313.195770,592.228699 310.829437,588.422729 311.191711,583.416260 
	C311.573547,578.139099 314.225372,574.170837 319.263550,572.427856 
	C324.497070,570.617432 329.479218,571.400818 333.581573,575.478088 
	C343.270599,585.107849 352.942749,594.754700 362.611969,604.404419 
	C375.347687,617.114380 388.071228,629.836548 400.808929,642.544556 
	C402.092560,643.825134 403.437927,645.043945 404.681671,646.222290 
	C407.155914,645.860046 408.205658,643.981750 409.563995,642.624207 
	C490.288208,561.947876 570.963501,481.222565 651.768677,400.627441 
	C655.268738,397.136475 655.538025,394.785309 652.935852,390.593170 
	C629.268677,352.465363 649.369690,303.149048 692.825195,292.284027 
	C731.100708,282.714172 768.870056,309.419952 773.527161,348.556183 
	C777.540710,382.284851 753.786621,416.447540 716.006104,421.094482 
	C703.931458,422.579651 692.010559,420.938568 680.995789,415.398865 
	C677.340393,413.560455 675.180176,414.235626 672.406006,417.022491 
	C636.674194,452.918213 600.821350,488.693359 564.749390,524.749329 
M671.656799,342.231781 
	C671.357239,343.183655 671.040710,344.130554 670.760620,345.088104 
	C663.834900,368.769226 680.460999,394.969849 708.082947,395.196533 
	C732.596436,395.397705 750.026550,375.133698 747.472839,351.656982 
	C745.183350,330.609192 728.337952,316.400452 707.984131,316.703186 
	C691.117310,316.954041 678.777405,325.706726 671.656799,342.231781 
z"/>
<path fill="#000000" opacity="1.000000" stroke="none" 
	d="
M218.414276,343.414246 
	C198.965454,362.872864 179.826050,382.141693 160.496201,401.217590 
	C157.607391,404.068481 157.386795,406.191132 159.130371,409.808533 
	C181.142227,455.476501 146.694351,506.963470 96.071442,504.239990 
	C65.995537,502.621918 39.587479,478.250183 35.619759,448.449707 
	C30.792704,412.195007 53.594803,380.361176 89.444237,374.048950 
	C107.082878,370.943207 123.476997,375.109772 138.602295,385.223541 
	C227.133163,296.632904 315.610992,208.095322 404.088837,119.557739 
	C407.020905,120.477371 407.986359,122.219353 409.230835,123.461365 
	C437.533173,151.708237 465.791229,179.999527 494.106415,208.233505 
	C498.327179,212.442154 500.415680,217.113220 498.634308,223.090698 
	C497.078308,228.311920 493.428467,231.085571 488.245544,231.922913 
	C482.994415,232.771271 478.943390,230.409607 475.359406,226.813034 
	C460.423462,211.824677 445.450134,196.873596 430.486847,181.912506 
	C423.535492,174.962158 416.355896,168.222321 409.708984,160.992432 
	C406.193481,157.168640 404.139862,157.543762 400.621735,161.075058 
	C345.470276,216.432922 290.179321,271.651794 234.920609,326.902802 
	C229.500610,332.322052 224.081436,337.742157 218.414276,343.414246 
M86.947014,475.606598 
	C105.951439,482.178223 123.864853,474.180389 133.030579,460.340637 
	C143.133041,445.086456 141.649490,426.098083 129.449722,412.381500 
	C118.746346,400.347351 101.593315,396.273499 86.119812,402.090546 
	C71.674339,407.521118 61.424385,422.016357 61.276859,437.494507 
	C61.103714,455.660492 69.983574,467.956116 86.947014,475.606598 
z"/>
</svg>